<svg xmlns="http://www.w3.org/2000/svg" viewBox="0 0 512 512" xml:space="preserve">
  <path d="M59.733 25.6C40.96 25.6 25.6 40.96 25.6 59.733s15.36 34.133 34.133 34.133 34.133-15.36 34.133-34.133S78.507 25.6 59.733 25.6m0 51.2c-9.387 0-17.067-7.68-17.067-17.067s7.68-17.067 17.067-17.067S76.8 50.347 76.8 59.733 69.12 76.8 59.733 76.8m76.8-51.2c-18.773 0-34.133 15.36-34.133 34.133s15.36 34.133 34.133 34.133 34.133-15.36 34.133-34.133S155.307 25.6 136.533 25.6m0 51.2c-9.387 0-17.067-7.68-17.067-17.067s7.68-17.067 17.067-17.067 17.067 7.68 17.067 17.067S145.92 76.8 136.533 76.8m76.8-51.2c-18.773 0-34.133 15.36-34.133 34.133s15.36 34.133 34.133 34.133 34.133-15.36 34.133-34.133S232.107 25.6 213.333 25.6m0 51.2c-9.387 0-17.067-7.68-17.067-17.067s7.68-17.067 17.067-17.067 17.067 7.68 17.067 17.067S222.72 76.8 213.333 76.8"/>
  <path d="M488.107 0H24.747C11.093 0 0 11.093 0 24.747v331.947C0 372.053 11.947 384 27.307 384h92.437c4.444 71.158 64.03 128 136.257 128s131.813-56.842 136.257-128h92.437c15.36 0 27.307-11.947 27.307-27.307V24.747C512 11.093 500.907 0 488.107 0M136.844 384h43.307c.566 14.401 3.218 28.684 7.794 42.667h-39.807A118.3 118.3 0 0 1 136.844 384m110.623-76.8h-34.042c8.307-16.676 19.719-32.675 34.042-47.703zm0 17.067v42.667H197.33c.772-14.496 3.733-28.77 8.774-42.667zm17.066 0h41.909c5.13 13.893 8.175 28.168 9.034 42.667h-50.943zm0-17.067v-47.735c14.476 15.029 26.023 31.039 34.458 47.735zm23.546-46.792c26.943 7.562 50.109 24.391 65.807 46.792h-36.15c-7.315-16.269-17.238-31.933-29.657-46.792M194.738 307.2h-36.624c15.732-22.448 38.962-39.3 65.977-46.839-12.319 14.879-22.134 30.56-29.353 46.839m-46.6 17.067H188.2c-4.502 13.892-7.171 28.152-7.92 42.667h-43.436a118.3 118.3 0 0 1 11.294-42.667M197.437 384h50.03v42.667h-40.859c-5.153-13.933-8.235-28.229-9.171-42.667m50.03 59.733v46.842c-13.972-14.695-25.162-30.438-33.414-46.842zm17.066 0h34.526c-8.441 16.846-20.012 33.083-34.526 48.473zm0-17.066V384h50.943c-.857 14.481-3.896 28.745-9.014 42.667zM332.598 384h42.558a118.3 118.3 0 0 1-11.294 42.667h-39.258c4.594-14.038 7.285-28.332 7.994-42.667m-.068-17.067c-.825-14.518-3.572-28.777-8.153-42.667h39.485a118.3 118.3 0 0 1 11.294 42.667zm-174.416 76.8h36.442c7.285 16.251 17.196 31.97 29.525 46.836-27.011-7.54-50.238-24.391-65.967-46.836m130.847 46.543c12.172-14.806 21.889-30.438 29.06-46.543h35.865c-15.527 22.156-38.358 38.864-64.925 46.543m205.972-133.583c0 5.973-4.267 10.24-10.24 10.24h-92.16c-4.191-70.414-61.908-126-132.702-127.943l-.348-.013a139 139 0 0 0-6.968 0l-.348.013c-70.794 1.942-128.511 57.529-132.702 127.943h-92.16c-5.973 0-10.24-4.267-10.24-10.24V119.467h477.867zM17.067 102.4V24.747a7.65 7.65 0 0 1 7.68-7.68h462.507a7.65 7.65 0 0 1 7.68 7.68V102.4z"/>
</svg>
